<svg id="Слой_1" data-name="Слой 1" xmlns="http://www.w3.org/2000/svg" viewBox="0 0 109.34 21.48"><title>logo-dealer</title><path d="M8.9.54c4.48,0,8.93,1.29,8.93,7.27,0,4.71-3.3,6.86-7.69,6.86H6.23V21H0V.54ZM6.23,9.9h3c1.52,0,2.58-.48,2.58-2.15,0-1.46-.86-2.18-2.7-2.18H6.23Z" style="fill:#ed1c24"/><path d="M40.35,10.77c0,6.4-4.13,10.71-10.28,10.71S19.62,17.21,19.62,10.74,23.78,0,30.13,0C36.25,0,40.35,4.33,40.35,10.77ZM26,10.65c0,3.65,1.49,5.75,4.08,5.75S34,14.4,34,10.48C34,7.06,32.55,5,30,5S26,7.15,26,10.65Z" style="fill:#ed1c24"/><path d="M61.2.54V21H55V5.8H51.21V7c0,5.81.14,14.36-7.12,14.36a6.27,6.27,0,0,1-2.5-.46V16.05a2.54,2.54,0,0,0,1.23.32c2.13,0,2.21-3.71,2.21-7V.54Z" style="fill:#ed1c24"/><path d="M71.2,6.92h3.47c5.58,0,8.07,2.61,8.07,6.89S79.9,21,74.3,21H64.94V.54H71.2Zm0,9.19h2.87c1.35,0,2.58-.46,2.58-2.24s-1.06-2.3-2.55-2.3H71.2Z" style="fill:#ed1c24"/><path d="M100.06,19v2H93.92V19c-5.78,0-9.37-3.53-9.37-8.33,0-3.82,2.64-8.1,9.37-8.1v-2h6.14v2c6,0,9.28,3.65,9.28,8C109.34,15.45,106.06,19,100.06,19Zm-6-12c-2.5,0-3.25,2.16-3.25,3.68,0,1.81.78,3.88,3.25,3.88Zm5.86,0v7.53c2.67,0,3.16-2.44,3.16-3.85S102.47,7,99.92,7Z" style="fill:#ed1c24"/></svg>