<svg height="32" viewBox="0 0 16 32" width="16" xmlns="http://www.w3.org/2000/svg"><path d="m3.312.5h9.375a2.812 2.812 0 0 1 2.812 2.812v9.375a2.813 2.813 0 0 1 -2.812 2.813h-9.375a2.812 2.812 0 0 1 -2.812-2.813v-9.375a2.812 2.812 0 0 1 2.812-2.812zm-.032 15.999h9.375a2.812 2.812 0 0 1 2.812 2.812v9.375a2.813 2.813 0 0 1 -2.812 2.813h-9.375a2.812 2.812 0 0 1 -2.812-2.813v-9.375a2.812 2.812 0 0 1 2.812-2.812z" fill="#f9fafa" stroke="#cacaca" stroke-miterlimit="10"/><path d="m6.748 26.796c.747-.863 1.335-1.6 1.985-2.28 1.269-1.328 2.557-2.64 3.87-3.925.522-.512 1.174-.534 1.72-.039.59.536.612 1.235.085 1.798-2.29 2.445-4.614 4.859-6.938 7.273-.482.501-1.007.445-1.486-.033-1.252-1.248-2.517-2.482-3.738-3.759-.608-.636-.598-1.616-.02-2.092.706-.583 1.383-.4 1.963.224.81.873 1.597 1.765 2.559 2.833z"/></svg>